<?xml version="1.0" encoding="UTF-8"?>
<!DOCTYPE svg PUBLIC "-//W3C//DTD SVG 1.1//EN" "http://www.w3.org/Graphics/SVG/1.1/DTD/svg11.dtd">
<svg xmlns="http://www.w3.org/2000/svg" version="1.1" width="512px" height="512px" style="shape-rendering:geometricPrecision; text-rendering:geometricPrecision; image-rendering:optimizeQuality; fill-rule:evenodd; clip-rule:evenodd" xmlns:xlink="http://www.w3.org/1999/xlink">
<g><path style="opacity:0.963" fill="#000000" d="M 176.5,-0.5 C 189.5,-0.5 202.5,-0.5 215.5,-0.5C 287.377,9.85726 340.21,47.1906 374,111.5C 402.069,174.191 399.402,235.524 366,295.5C 319.062,366.548 252.896,398.381 167.5,391C 151.512,388.628 136.012,384.461 121,378.5C 84.2141,403.809 46.0474,405.976 6.5,385C 0.866976,379.438 -0.633024,372.938 2,365.5C 18.4333,339.569 23.4333,311.569 17,281.5C 9.7823,258.712 3.94896,235.712 -0.5,212.5C -0.5,200.5 -0.5,188.5 -0.5,176.5C 10.3343,100.318 50.6676,46.151 120.5,14C 138.658,6.67585 157.325,1.84252 176.5,-0.5 Z M 182.5,30.5 C 250.356,28.506 302.523,55.8393 339,112.5C 365.215,159.938 368.549,208.938 349,259.5C 328.873,302.626 296.706,333.126 252.5,351C 218.589,363.33 184.256,364.663 149.5,355C 138.88,351.35 128.38,347.517 118,343.5C 114.68,344.168 111.513,345.335 108.5,347C 88.3728,366.046 65.0394,371.712 38.5,364C 51.689,335.631 54.8557,306.131 48,275.5C 43.3333,258.833 38.6667,242.167 34,225.5C 23.7124,150.251 50.5457,92.4179 114.5,52C 135.927,40.4665 158.594,33.2998 182.5,30.5 Z"/></g>
<g><path style="opacity:0.953" fill="#000000" d="M 101.5,172.5 C 123.757,171.918 133.59,182.585 131,204.5C 123.954,219.633 112.454,224.467 96.5,219C 82.6391,209.7 79.4725,197.533 87,182.5C 91.0118,177.762 95.8452,174.429 101.5,172.5 Z"/></g>
<g><path style="opacity:0.951" fill="#000000" d="M 189.5,172.5 C 211.155,170.989 221.322,180.989 220,202.5C 214.398,217.886 203.564,223.72 187.5,220C 172.857,212.539 168.357,201.039 174,185.5C 177.818,179.512 182.984,175.179 189.5,172.5 Z"/></g>
<g><path style="opacity:0.953" fill="#000000" d="M 278.5,172.5 C 296.419,170.756 306.752,178.756 309.5,196.5C 307.621,213.879 297.954,222.045 280.5,221C 264.794,216.759 258.294,206.593 261,190.5C 263.683,181.318 269.517,175.318 278.5,172.5 Z"/></g>
<g><path style="opacity:0.962" fill="#000000" d="M 511.5,288.5 C 511.5,301.833 511.5,315.167 511.5,328.5C 510.098,338.105 508.264,347.772 506,357.5C 501.663,371.178 497.33,384.844 493,398.5C 488.083,427.248 493.416,453.915 509,478.5C 511.87,486.89 509.704,493.724 502.5,499C 490.972,504.897 478.972,509.063 466.5,511.5C 457.167,511.5 447.833,511.5 438.5,511.5C 420.595,508.692 404.428,501.692 390,490.5C 328.421,514.054 268.921,509.554 211.5,477C 200.465,470.627 190.632,462.793 182,453.5C 178.16,437.657 184.326,430.157 200.5,431C 202.246,431.471 203.913,432.138 205.5,433C 252.174,471.404 304.841,482.737 363.5,467C 373.309,463.342 383.142,459.842 393,456.5C 396.012,456.726 398.845,457.559 401.5,459C 421.797,478.324 445.464,484.324 472.5,477C 458.224,445.804 455.724,413.637 465,380.5C 487.105,328.677 485.438,277.677 460,227.5C 454.445,217.946 448.111,208.946 441,200.5C 436.17,181.662 443.337,174.162 462.5,178C 484.543,202.58 499.376,231.08 507,263.5C 508.654,271.949 510.154,280.282 511.5,288.5 Z"/></g>
</svg>
